<?xml version="1.0" encoding="iso-8859-1"?>
<!-- Generator: Adobe Illustrator 19.0.0, SVG Export Plug-In . SVG Version: 6.00 Build 0)  -->
<svg version="1.1" id="Capa_1" xmlns="http://www.w3.org/2000/svg" xmlns:xlink="http://www.w3.org/1999/xlink" x="0px" y="0px"
	 viewBox="0 0 512 512" style="enable-background:new 0 0 512 512;" xml:space="preserve">
<g>
	<g>
		<path d="M509.728,327.776l-48-80C458.848,242.944,453.632,240,448,240h-96v-48c0-8.832-7.168-16-16-16h-81.632
			C246.304,247.808,185.92,304,112,304c-29.6,0-57.088-9.024-80-24.384V368v48c0,8.832,7.168,16,16,16h50.944
			c6.624,18.592,24.224,32,45.056,32c20.832,0,38.432-13.408,45.056-32H336h16h34.944c6.624,18.592,24.224,32,45.056,32
			c20.832,0,38.432-13.408,45.056-32H496c8.832,0,16-7.168,16-16v-80C512,333.088,511.232,330.24,509.728,327.776z M144,432
			c-8.832,0-16-7.2-16-16s7.168-16,16-16c8.832,0,16,7.2,16,16S152.832,432,144,432z M432,432c-8.8,0-16-7.2-16-16s7.2-16,16-16
			s16,7.2,16,16S440.8,432,432,432z M384,336v-64h54.944l38.4,64H384z"/>
	</g>
</g>
<g>
	<g>
		<path d="M112,48C50.24,48,0,98.24,0,160s50.24,112,112,112s112-50.24,112-112S173.76,48,112,48z M155.328,203.328
			C152.192,206.432,148.096,208,144,208s-8.192-1.568-11.328-4.672l-32-32C97.696,168.32,96,164.256,96,160v-48
			c0-8.832,7.168-16,16-16c8.832,0,16,7.168,16,16v41.376l27.328,27.328C161.568,186.944,161.568,197.088,155.328,203.328z"/>
	</g>
</g>
<g>
</g>
<g>
</g>
<g>
</g>
<g>
</g>
<g>
</g>
<g>
</g>
<g>
</g>
<g>
</g>
<g>
</g>
<g>
</g>
<g>
</g>
<g>
</g>
<g>
</g>
<g>
</g>
<g>
</g>
</svg>
